<svg xmlns="http://www.w3.org/2000/svg" viewBox="0 0 274.87 326"><defs><style>.cls-1{fill:#13678a;}.cls-2{fill:#9aeba3;}.cls-3{fill:#45c4b0;}</style></defs><g id="Layer_2" data-name="Layer 2"><g id="Layer_1-2" data-name="Layer 1"><polygon class="cls-1" points="171.21 0 171.21 120.15 91.62 199.74 91.62 0 171.21 0"/><polygon class="cls-2" points="262.83 0 262.83 28.53 183.25 108.11 183.25 0 262.83 0"/><polygon class="cls-3" points="79.59 0 79.59 211.78 0 291.36 0 0 79.59 0"/><polygon class="cls-1" points="183.25 127.44 183.25 326 103.66 326 103.66 207.03 183.25 127.44"/><polygon class="cls-3" points="91.62 219.07 91.62 326 12.04 326 12.04 298.65 91.62 219.07"/><polygon class="cls-2" points="274.87 35.82 274.87 326 195.29 326 195.29 115.41 274.87 35.82"/><polygon class="cls-2" points="12.04 298.65 91.63 219.07 79.59 211.78 0 291.36 12.04 298.65"/><polygon class="cls-3" points="91.63 199.74 171.21 120.15 183.25 127.44 103.66 207.03 91.63 199.74"/><polygon class="cls-1" points="183.25 108.11 195.29 115.41 274.87 35.82 262.83 28.53 183.25 108.11"/></g></g></svg>