<svg xmlns="http://www.w3.org/2000/svg" viewBox="0 0 665.91 44.22"><defs><style>.cls-1{fill:#13678a;}.cls-2{fill:#9aeba3;}.cls-3{fill:#45c4b0;}.cls-4{fill:#fff;}</style></defs><g id="Layer_2" data-name="Layer 2"><g id="Layer_1-2" data-name="Layer 1"><polygon class="cls-1" points="266.86 29.54 384.37 29.54 399.06 14.85 281.55 14.85 266.86 29.54"/><polygon class="cls-2" points="252.17 44.22 369.68 44.22 384.37 29.54 266.86 29.54 252.17 44.22"/><polygon class="cls-3" points="281.55 14.85 399.06 14.85 413.75 0.16 296.24 0.16 281.55 14.85"/><path class="cls-4" d="M656.26,4l-7.9,7.89L633.64,26.62,620.1,40.16H423.66l22.6-22.61L459.81,4H656.26m9.65-4H458.16L443.43,14.72,414,44.16H621.76l14.71-14.71,14.72-14.73L665.91,0Z"/><path class="cls-4" d="M242.26,4l-7.9,7.89L219.64,26.62,206.1,40.16H9.66l22.6-22.61L45.81,4H242.26m9.65-4H44.16L29.43,14.72,0,44.16H207.76l14.71-14.71,14.72-14.73L251.91,0Z"/></g></g></svg>