<svg xmlns="http://www.w3.org/2000/svg" viewBox="0 0 746 625"><defs><style>.cls-1{fill:#9aeba3;}.cls-2{fill:#84ce89;}.cls-3{fill:#0f5b72;}.cls-4{fill:#13678a;}.cls-5{fill:#45c4b0;}.cls-6{fill:#31a38d;}.cls-7,.cls-8{fill:#fff;}.cls-8{opacity:0.2;}.cls-9{fill:none;stroke:#fff;stroke-miterlimit:10;stroke-width:4px;}</style></defs><g id="Layer_2" data-name="Layer 2"><g id="Layer_1-2" data-name="Layer 1"><rect class="cls-1" x="120.2" y="120.65" width="75.2" height="75.2"/><polygon class="cls-2" points="345.79 175.46 345.79 574.39 195.4 574.39 120.2 499.19 270.6 499.19 270.6 100.26 345.79 175.46"/><rect class="cls-1" x="320.3" y="120.65" width="75.2" height="75.2"/><rect class="cls-1" x="520.41" y="120.65" width="75.2" height="75.2"/><polygon class="cls-1" points="595.6 45.45 595.6 195.85 445.21 195.85 595.6 45.45"/><rect class="cls-1" x="120.2" y="271.05" width="150.4" height="228.14"/><polygon class="cls-3" points="545.9 175.46 545.9 574.39 395.5 574.39 320.3 499.19 470.7 499.19 470.7 100.26 545.9 175.46"/><rect class="cls-4" x="320.3" y="271.05" width="150.4" height="228.14"/><rect class="cls-5" x="520.41" y="271.05" width="150.4" height="228.14"/><polygon class="cls-2" points="270.6 120.65 270.6 271.05 120.2 271.05 45 195.85 195.4 195.85 195.4 45.45 270.6 120.65"/><polygon class="cls-1" points="195.4 45.45 195.4 195.85 45 195.85 195.4 45.45"/><rect class="cls-1" x="45" y="45.45" width="150.4" height="150.4"/><polygon class="cls-3" points="470.7 120.65 470.7 271.05 320.3 271.05 245.1 195.85 395.5 195.85 395.5 45.45 470.7 120.65"/><polygon class="cls-1" points="395.5 45.45 395.5 195.85 245.1 195.85 395.5 45.45"/><rect class="cls-4" x="245.1" y="45.45" width="150.4" height="150.4"/><rect class="cls-5" x="445.21" y="45.45" width="150.4" height="150.4"/><polygon class="cls-6" points="746 195.85 746 574.39 595.6 574.39 520.4 499.19 670.8 499.19 670.8 271.05 520.4 271.05 445.21 195.85 595.6 195.85 595.6 45.45 746 195.85"/><path class="cls-7" d="M669.35,533.65,736.28,600H196.65l-66.93-66.35H669.35m1.65-4H120L195,604H746l-75-74.35Z"/><polygon class="cls-8" points="746 625 195 625 120 550.64 671 550.64 746 625"/><rect class="cls-9" x="20" y="20" width="551" height="151"/><rect class="cls-8" width="551" height="151"/></g></g></svg>