<svg xmlns="http://www.w3.org/2000/svg" viewBox="0 0 286 189.02"><defs><style>.cls-1{fill:none;stroke:#fff;stroke-linejoin:round;stroke-width:2px;}</style></defs><g id="Layer_2" data-name="Layer 2"><g id="Layer_1-2" data-name="Layer 1"><polygon class="cls-1" points="188.02 1 188.02 56.41 132.61 56.41 132.61 111.83 77.19 111.83 77.19 56.41 1 56.41 56.41 1 188.02 1"/><polygon class="cls-1" points="285 132.61 229.59 188.02 97.98 188.02 97.98 132.61 153.39 132.61 153.39 77.19 208.81 77.19 208.81 132.61 285 132.61"/><polygon class="cls-1" points="77.19 56.41 77.19 77.19 21.78 77.19 1 56.41 77.19 56.41"/><polygon class="cls-1" points="285 132.61 208.81 132.61 208.81 111.83 264.22 111.83 285 132.61"/><polygon class="cls-1" points="97.98 132.61 97.98 188.02 77.19 167.24 77.19 111.83 97.98 132.61"/><polygon class="cls-1" points="208.81 21.78 208.81 77.19 188.02 56.41 188.02 1 208.81 21.78"/></g></g></svg>