<svg xmlns="http://www.w3.org/2000/svg" viewBox="0 0 542.46 357.04"><defs><style>.cls-1{fill:#13678a;}.cls-2{fill:#9aeba3;}.cls-3{fill:#45c4b0;}.cls-4{opacity:0.3;}.cls-5{fill:#094654;}.cls-6{fill:#02171e;}</style></defs><g id="Layer_2" data-name="Layer 2"><g id="Layer_1-2" data-name="Layer 1"><polygon class="cls-1" points="277.69 238.02 171.91 238.02 158.68 224.8 264.47 224.8 277.69 238.02"/><polygon class="cls-1" points="383.48 132.24 277.69 132.24 264.47 119.01 370.26 119.01 383.48 132.24"/><polygon class="cls-2" points="290.92 251.25 185.13 251.25 171.91 238.02 277.69 238.02 290.92 251.25"/><polygon class="cls-2" points="396.71 145.46 290.92 145.46 277.69 132.24 383.48 132.24 396.71 145.46"/><polygon class="cls-3" points="264.47 224.8 158.68 224.8 145.46 211.58 251.25 211.58 264.47 224.8"/><polygon class="cls-1" points="145.46 132.24 26.45 132.24 13.22 119.01 145.46 119.01 145.46 132.24"/><polygon class="cls-2" points="145.46 145.46 39.67 145.46 26.45 132.24 145.46 132.24 145.46 145.46"/><polygon class="cls-3" points="145.46 119.01 13.22 119.01 0 105.79 145.46 105.79 145.46 119.01"/><polygon class="cls-1" points="397 225.01 516.01 225.01 529.24 238.24 397 238.24 397 225.01"/><polygon class="cls-2" points="397 211.79 502.79 211.79 516.01 225.01 397 225.01 397 211.79"/><polygon class="cls-3" points="397 238.24 529.24 238.24 542.46 251.46 397 251.46 397 238.24"/><polygon class="cls-3" points="370.26 119.01 264.47 119.01 251.25 105.79 357.04 105.79 370.26 119.01"/><polygon class="cls-3" points="264.47 119.01 264.47 224.8 251.25 211.58 251.25 105.79 264.47 119.01"/><polygon class="cls-1" points="277.69 132.24 277.69 238.02 264.47 224.8 264.47 119.01 277.69 132.24"/><polygon class="cls-2" points="290.92 145.46 290.92 251.25 277.69 238.02 277.69 132.24 290.92 145.46"/><polygon class="cls-4" points="251.25 105.79 290.92 145.46 290.92 251.25 251.25 211.58 251.25 105.79"/><polygon class="cls-5" points="145.46 211.58 185.13 251.25 185.13 357.04 145.46 317.37 145.46 211.58"/><polygon class="cls-5" points="357.04 0 396.71 39.67 396.71 145.46 357.04 105.79 357.04 0"/><polygon class="cls-6" points="357.04 0 357.04 105.79 251.25 105.79 251.25 211.58 145.46 211.58 145.46 105.79 0 105.79 105.79 0 357.04 0"/><polygon class="cls-6" points="542.17 251.25 436.38 357.04 185.13 357.04 185.13 251.25 290.92 251.25 290.92 145.46 396.71 145.46 396.71 251.25 542.17 251.25"/></g></g></svg>