<svg xmlns="http://www.w3.org/2000/svg" viewBox="0 0 252 252"><defs><style>.cls-1{fill:#fff;}.cls-2{fill:#45c4b0;}.cls-3{fill:#13678a;}.cls-4{fill:#9aeba3;}</style></defs><g id="Layer_2" data-name="Layer 2"><g id="Layer_1-2" data-name="Layer 1"><path class="cls-1" d="M28.15,51.45,58,81.34a82.64,82.64,0,1,0,150.6,47,81.93,81.93,0,0,0-14.68-47l29.87-29.88A123,123,0,0,1,39,213,122.16,122.16,0,0,1,3,126,123.41,123.41,0,0,1,28.15,51.45m-.27-4.52A126,126,0,1,0,224.1,47L190,81A79.64,79.64,0,1,1,62,81L27.88,46.93Z"/><path class="cls-2" d="M217,38.84,206.06,49.77A110.55,110.55,0,0,0,46.65,49L35.72,38.1A126,126,0,0,1,217,38.84Z"/><path class="cls-3" d="M206.06,49.77l-11.81,11.8a95.09,95.09,0,0,0-135.79-.73L46.65,49a110.55,110.55,0,0,1,159.41.75Z"/><path class="cls-4" d="M194.25,61.57,183,72.8a79.61,79.61,0,0,0-113.34-.74L58.46,60.84a95.09,95.09,0,0,1,135.79.73Z"/></g></g></svg>