<svg xmlns="http://www.w3.org/2000/svg" viewBox="0 0 542.46 357.04"><defs><style>.cls-1{fill:#13678a;}.cls-2{fill:#9aeba3;}.cls-3{fill:#45c4b0;}.cls-4{opacity:0.3;}.cls-5{fill:#fff;}</style></defs><g id="Layer_2" data-name="Layer 2"><g id="Layer_1-2" data-name="Layer 1"><polygon class="cls-1" points="277.69 238.02 171.91 238.02 158.68 224.8 264.47 224.8 277.69 238.02"/><polygon class="cls-1" points="383.48 132.24 277.69 132.24 264.47 119.01 370.26 119.01 383.48 132.24"/><polygon class="cls-2" points="290.92 251.25 185.13 251.25 171.91 238.02 277.69 238.02 290.92 251.25"/><polygon class="cls-2" points="396.71 145.46 290.92 145.46 277.69 132.24 383.48 132.24 396.71 145.46"/><polygon class="cls-3" points="264.47 224.8 158.68 224.8 145.46 211.58 251.25 211.58 264.47 224.8"/><polygon class="cls-1" points="145.46 132.24 26.45 132.24 13.22 119.01 145.46 119.01 145.46 132.24"/><polygon class="cls-2" points="145.46 145.46 39.67 145.46 26.45 132.24 145.46 132.24 145.46 145.46"/><polygon class="cls-3" points="145.46 119.01 13.22 119.01 0 105.79 145.46 105.79 145.46 119.01"/><polygon class="cls-1" points="397 225.01 516.01 225.01 529.24 238.24 397 238.24 397 225.01"/><polygon class="cls-2" points="397 211.79 502.79 211.79 516.01 225.01 397 225.01 397 211.79"/><polygon class="cls-3" points="397 238.24 529.24 238.24 542.46 251.46 397 251.46 397 238.24"/><polygon class="cls-3" points="370.26 119.01 264.47 119.01 251.25 105.79 357.04 105.79 370.26 119.01"/><polygon class="cls-3" points="264.47 119.01 264.47 224.8 251.25 211.58 251.25 105.79 264.47 119.01"/><polygon class="cls-1" points="277.69 132.24 277.69 238.02 264.47 224.8 264.47 119.01 277.69 132.24"/><polygon class="cls-2" points="290.92 145.46 290.92 251.25 277.69 238.02 277.69 132.24 290.92 145.46"/><polygon class="cls-4" points="251.25 105.79 290.92 145.46 290.92 251.25 251.25 211.58 251.25 105.79"/><path class="cls-5" d="M149.46,221.23l31.67,31.67v94.48l-31.67-31.67V221.23m-4-9.65V317.37L185.13,357V251.25l-39.67-39.67Z"/><path class="cls-5" d="M361,9.66l31.67,31.67V135.8L361,104.13V9.66M357,0V105.79l39.67,39.67V39.67L357,0Z"/><path class="cls-5" d="M353,4v97.79H247.25V207.58H149.46V101.79H9.66L107.45,4H353m4-4H105.79L0,105.79H145.46V211.58H251.25V105.79H357V0Z"/><path class="cls-5" d="M392.71,149.46V255.25h139.8L434.72,353H189.13V255.25H294.92V149.46h97.79m4-4H290.92V251.25H185.13V357H436.38L542.17,251.25H396.71V145.46Z"/></g></g></svg>