<svg xmlns="http://www.w3.org/2000/svg" viewBox="0 0 245.18 161.46"><defs><style>.cls-1{fill:#02171e;}.cls-2{fill:#9aeba3;}.cls-3{fill:#094654;}</style></defs><g id="Layer_2" data-name="Layer 2"><g id="Layer_1-2" data-name="Layer 1"><polygon class="cls-1" points="161.46 0 161.46 47.84 113.62 47.84 113.62 95.68 65.78 95.68 65.78 47.84 0 47.84 47.84 0 161.46 0"/><polygon class="cls-1" points="245.18 113.62 197.34 161.46 83.72 161.46 83.72 113.62 131.56 113.62 131.56 65.78 179.4 65.78 179.4 113.62 245.18 113.62"/><polygon class="cls-2" points="131.56 113.62 83.72 113.62 65.78 95.68 113.62 95.68 131.56 113.62"/><polygon class="cls-3" points="65.78 47.84 65.78 65.78 17.94 65.78 0 47.84 65.78 47.84"/><polygon class="cls-2" points="179.4 65.78 131.56 65.78 113.62 47.84 161.46 47.84 179.4 65.78"/><polygon class="cls-3" points="245.18 113.62 179.4 113.62 179.4 95.68 227.24 95.68 245.18 113.62"/><polygon class="cls-2" points="131.56 65.78 131.56 113.62 113.62 95.68 113.62 47.84 131.56 65.78"/><polygon class="cls-3" points="83.72 113.62 83.72 161.46 65.78 143.52 65.78 95.68 83.72 113.62"/><polygon class="cls-3" points="179.4 17.94 179.4 65.78 161.46 47.84 161.46 0 179.4 17.94"/></g></g></svg>