<svg xmlns="http://www.w3.org/2000/svg" viewBox="0 0 286.91 289.86"><defs><style>.cls-1{fill:#13678a;}.cls-2{fill:#9aeba3;}.cls-3{fill:#45c4b0;}.cls-4{fill:#fff;}</style></defs><g id="Layer_2" data-name="Layer 2"><g id="Layer_1-2" data-name="Layer 1"><polygon class="cls-1" points="125.3 275.17 125.3 187.66 110.61 172.97 110.61 260.48 125.3 275.17"/><polygon class="cls-2" points="139.99 289.86 139.99 202.35 125.3 187.66 125.3 275.17 139.99 289.86"/><polygon class="cls-3" points="110.61 260.48 110.61 172.97 95.92 158.28 95.92 245.79 110.61 260.48"/><path class="cls-4" d="M122.26,98.88l-7.9,7.89L99.64,121.5,86.1,135H9.66l22.6-22.61L45.81,98.88h76.45m9.65-4H44.16L29.43,109.6,0,139H87.76l14.71-14.72,14.72-14.72,14.72-14.72Z"/><path class="cls-4" d="M150.88,9.66l7.89,7.89L173.5,32.27,187,45.81v76.45L164.43,99.65,150.88,86.1V9.66m-4-9.66V87.76l14.72,14.72L191,131.91V44.16L176.32,29.45,161.6,14.72,146.88,0Z"/><path class="cls-4" d="M277.26,152.88l-7.9,7.89L254.64,175.5,241.1,189H164.66l22.6-22.61,13.55-13.55h76.45m9.65-4H199.16L184.43,163.6,155,193h87.76l14.71-14.72,14.72-14.72,14.72-14.72Z"/><path class="cls-4" d="M142.69,114.6,173.1,145l-30.41,30.41L112.28,145l30.41-30.4m0-5.66L106.63,145l36.06,36.06L178.75,145l-36.06-36.06Z"/></g></g></svg>