<svg xmlns="http://www.w3.org/2000/svg" viewBox="0 0 288 191.02"><defs><style>.cls-1{fill:#9aeba3;}.cls-2{fill:none;stroke:#fff;stroke-linecap:round;stroke-linejoin:round;stroke-width:4px;}</style></defs><g id="Layer_2" data-name="Layer 2"><g id="Layer_1-2" data-name="Layer 1"><polygon class="cls-1" points="209.8 78.19 154.39 78.19 154.39 133.61 98.98 133.61 78.19 112.83 133.61 112.83 133.61 57.42 189.02 57.42 209.8 78.19"/><polygon class="cls-2" points="189.02 2 189.02 57.41 133.61 57.41 133.61 112.83 78.19 112.83 78.19 57.41 2 57.41 57.41 2 189.02 2"/><polygon class="cls-2" points="286 133.61 230.59 189.02 98.98 189.02 98.98 133.61 154.39 133.61 154.39 78.19 209.81 78.19 209.81 133.61 286 133.61"/><polygon class="cls-2" points="78.19 57.41 78.19 78.19 22.78 78.19 2 57.41 78.19 57.41"/><polygon class="cls-2" points="286 133.61 209.81 133.61 209.81 112.83 265.22 112.83 286 133.61"/><polygon class="cls-2" points="98.98 133.61 98.98 189.02 78.19 168.24 78.19 112.83 98.98 133.61"/><polygon class="cls-2" points="209.81 22.78 209.81 78.19 189.02 57.41 189.02 2 209.81 22.78"/></g></g></svg>