<svg xmlns="http://www.w3.org/2000/svg" viewBox="0 0 251.58 188.5"><defs><style>.cls-1{fill:#13678a;}.cls-2{fill:#9aeba3;}.cls-3{fill:#45c4b0;}.cls-4{fill:#fff;}</style></defs><g id="Layer_2" data-name="Layer 2"><g id="Layer_1-2" data-name="Layer 1"><polygon class="cls-1" points="14.69 101.41 222.2 101.41 236.89 86.72 29.38 86.72 14.69 101.41"/><polygon class="cls-2" points="0 116.1 207.51 116.1 222.2 101.41 14.69 101.41 0 116.1"/><polygon class="cls-3" points="29.38 86.72 236.89 86.72 251.58 72.03 44.07 72.03 29.38 86.72"/><path class="cls-4" d="M108.52,3V55h-61V3h61m3-3h-67V58h67V0Z"/><path class="cls-4" d="M248.52,3V55h-121V3h121m3-3h-127V58h127V0Z"/><path class="cls-4" d="M204,133.5v52H143v-52h61m3-3H140v58h67v-58Z"/><path class="cls-4" d="M124,133.5v52H3v-52H124m3-3H0v58H127v-58Z"/></g></g></svg>