<svg xmlns="http://www.w3.org/2000/svg" viewBox="0 0 704.93 85"><defs><style>.cls-1{fill:#9aeba3;}.cls-2{fill:#02171e;}</style></defs><g id="Layer_2" data-name="Layer 2"><g id="Layer_1-2" data-name="Layer 1"><polygon class="cls-1" points="185.95 61.4 178.24 69.1 170.54 76.81 162.83 84.51 101.19 84.51 108.9 76.81 116.6 69.1 124.31 61.4 185.95 61.4"/><polygon class="cls-1" points="704.93 84.06 673.43 84.06 631.43 42.06 662.93 42.06 704.93 84.06"/><polygon class="cls-2" points="704.93 0.11 662.93 42.11 631.43 42.11 673.43 0.11 704.93 0.11"/><polygon class="cls-2" points="186.03 1.51 178.31 9.24 170.59 16.96 162.87 24.68 101.1 24.68 116.54 9.24 124.26 1.51 186.03 1.51"/><polygon class="cls-2" points="186.03 31.41 178.31 39.14 170.59 46.86 162.87 54.58 101.1 54.58 116.54 39.14 124.26 31.41 186.03 31.41"/><polygon class="cls-2" points="466.02 60.17 453.89 72.3 441.76 84.42 396.85 84.42 396.85 0.18 421.66 0.18 421.66 60.17 441.75 60.17 441.75 60.17 466.02 60.17"/><polygon class="cls-2" points="269.76 84.42 244.3 84.42 227.13 26.27 210.03 84.42 185.07 84.42 213.67 0.35 241.15 0.35 269.76 84.42"/><path class="cls-2" d="M373.84.35H342.25l-4.77,18.9q-.66,2.57-1.29,5.19-1.14,4.75-2.18,9.67l-2.68,13q-2-10.29-4.77-22.7Q324.05,13.25,320.91.35H290L278.32,84.42h23.2l.21-1.92,6.09-56L323.65,84.4v0h16.57v0l15.11-57.79,6.36,56.16.19,1.65h24.24Z"/><polygon class="cls-2" points="592.71 0.11 592.71 84.4 592.55 84.4 592.55 84.42 567.42 84.42 537.83 38.06 537.83 84.4 537.6 84.4 537.6 84.42 513.11 84.42 513.11 0.35 537.84 0.35 567.81 47.06 567.81 0.11 592.71 0.11"/><rect class="cls-2" x="606.4" width="25.17" height="84.12"/><polygon class="cls-2" points="441.76 84.42 441.75 84.43 396.85 84.42 441.76 84.42"/><polygon class="cls-2" points="93.69 0.18 93.69 24.68 68.93 24.68 68.93 84.43 44.12 84.43 44.12 24.44 24.02 24.44 24.02 24.43 0 24.43 24.01 0.18 93.69 0.18"/><rect class="cls-2" x="475.04" y="1.07" width="25.18" height="83.93"/></g></g></svg>