<svg xmlns="http://www.w3.org/2000/svg" viewBox="0 0 1343.86 162.04"><defs><style>.cls-1{fill:#13678a;}.cls-2{fill:#9aeba3;}.cls-3{fill:#45c4b0;}.cls-4{fill:#02171e;}</style></defs><g id="Layer_2" data-name="Layer 2"><g id="Layer_1-2" data-name="Layer 1"><polygon class="cls-1" points="207.59 146.42 325.11 146.42 339.8 131.73 222.28 131.73 207.59 146.42"/><polygon class="cls-2" points="192.91 161.11 310.42 161.11 325.11 146.42 207.59 146.42 192.91 161.11"/><polygon class="cls-3" points="222.28 131.73 339.8 131.73 354.49 117.04 236.97 117.04 222.28 131.73"/><polygon class="cls-1" points="1223.76 80.18 1303.82 160.25 1323.84 160.25 1243.78 80.18 1223.76 80.18"/><polygon class="cls-2" points="1203.74 80.18 1283.81 160.25 1303.82 160.25 1223.76 80.18 1203.74 80.18"/><polygon class="cls-3" points="1243.78 80.18 1323.84 160.25 1343.86 160.25 1263.79 80.18 1243.78 80.18"/><polygon class="cls-4" points="1343.85 0.21 1263.79 80.28 1203.74 80.28 1283.8 0.21 1343.85 0.21"/><polygon class="cls-4" points="354.65 2.89 339.93 17.61 325.21 32.33 310.5 47.04 192.74 47.04 222.17 17.61 236.89 2.89 354.65 2.89"/><polygon class="cls-4" points="354.65 59.89 339.93 74.61 325.21 89.33 310.5 104.04 192.74 104.04 222.17 74.61 236.89 59.89 354.65 59.89"/><polygon class="cls-4" points="888.4 114.71 865.28 137.83 842.16 160.94 756.54 160.94 756.54 0.34 803.84 0.34 803.84 114.7 842.15 114.7 842.15 114.71 888.4 114.71"/><polygon class="cls-4" points="514.26 160.94 465.73 160.94 433 50.08 400.4 160.94 352.81 160.94 407.34 0.67 459.72 0.67 514.26 160.94"/><path class="cls-4" d="M712.69.67H652.45l-9.09,36q-1.26,4.91-2.46,9.89-2.17,9.08-4.16,18.45l-5.09,24.84q-3.81-19.64-9.1-43.29Q617.77,25.28,611.78.67h-59L530.59,160.94h44.22l.4-3.67L586.82,50.5,617,160.91v0H648.6v0l28.8-110.18L689.53,157.8l.36,3.14H736.1Z"/><polygon class="cls-4" points="1129.92 0.21 1129.92 160.91 1129.63 160.91 1129.63 160.94 1081.71 160.94 1025.3 72.56 1025.3 160.91 1024.86 160.91 1024.86 160.94 978.18 160.94 978.18 0.67 1025.32 0.67 1082.46 89.71 1082.46 0.21 1129.92 0.21"/><rect class="cls-4" x="1156.02" width="47.99" height="160.37"/><polygon class="cls-4" points="842.16 160.94 842.15 160.95 756.54 160.94 842.16 160.94"/><polygon class="cls-4" points="178.61 0.35 178.61 47.04 131.4 47.04 131.4 160.95 84.1 160.95 84.1 46.59 45.79 46.59 45.79 46.58 0 46.58 45.78 0.35 178.61 0.35"/><rect class="cls-4" x="905.61" y="2.04" width="48" height="160"/></g></g></svg>