<svg xmlns="http://www.w3.org/2000/svg" viewBox="0 0 1343.86 162.04"><defs><style>.cls-1{fill:#13678a;}.cls-2{fill:#9aeba3;}.cls-3{fill:#45c4b0;}.cls-4{fill:#02171e;}.cls-5{fill:#fff;}</style></defs><g id="Layer_2" data-name="Layer 2"><g id="Layer_1-2" data-name="Layer 1"><polygon class="cls-1" points="207.59 146.42 325.11 146.42 339.8 131.73 222.28 131.73 207.59 146.42"/><polygon class="cls-2" points="192.91 161.11 310.42 161.11 325.11 146.42 207.59 146.42 192.91 161.11"/><polygon class="cls-3" points="222.28 131.73 339.8 131.73 354.49 117.04 236.97 117.04 222.28 131.73"/><polygon class="cls-1" points="1223.76 80.18 1303.82 160.25 1323.84 160.25 1243.78 80.18 1223.76 80.18"/><polygon class="cls-2" points="1203.74 80.18 1283.81 160.25 1303.82 160.25 1223.76 80.18 1203.74 80.18"/><polygon class="cls-3" points="1243.78 80.18 1323.84 160.25 1343.86 160.25 1263.79 80.18 1243.78 80.18"/><polygon class="cls-4" points="842.16 160.94 842.15 160.95 756.54 160.94 842.16 160.94"/><path class="cls-5" d="M1334.2,5.55l-72.07,72.06H1213.4l72.06-72.06h48.74m9.65-4h-60l-80.06,80.06h60l80.06-80.06Z" transform="translate(0 -1.33)"/><path class="cls-5" d="M345,8.22l-7.9,7.89L322.38,30.83,308.84,44.37H202.39L225,21.77,238.55,8.22H345m9.65-4H236.89L222.17,18.94,192.74,48.37H310.5l14.71-14.71,14.72-14.72L354.65,4.22Z" transform="translate(0 -1.33)"/><path class="cls-5" d="M345,65.22l-7.9,7.89L322.38,87.83l-13.54,13.54H202.39L225,78.77l13.55-13.55H345m9.65-4H236.89L222.17,75.94l-29.43,29.43H310.5l14.71-14.71,14.72-14.72,14.72-14.72Z" transform="translate(0 -1.33)"/><path class="cls-5" d="M799.84,5.67V120h78.9l-16.29,16.29-22,21.94h-80V5.67h39.3m4-4h-47.3v160.6h85.62l23.12-23.11L888.4,116H803.84V1.67Z" transform="translate(0 -1.33)"/><path class="cls-5" d="M456.86,6l51.82,152.27h-40l-31.89-108-3.84-13-3.83,13-31.75,108h-39L410.2,6h46.66m2.86-4H407.34L352.81,162.27H400.4L433,51.41l32.73,110.86h48.53L459.72,2Z" transform="translate(0 -1.33)"/><path class="cls-5" d="M709.23,6l22.25,152.27h-38L681.38,51.61,679,30.28l-5.43,20.77-28,107.22H620.06L590.68,50.77l-5.55-20.32-2.28,21L571.23,158.17v.1h-36L556.26,6h52.38c3.69,15.24,7.05,29.62,10,42.79C622.26,65,625.23,79.1,627.72,92l3.82,19.72,4-19.67,5.08-24.82c1.39-6.54,2.74-12.54,4.14-18.34.8-3.33,1.62-6.64,2.45-9.85l8.33-33h53.66m3.46-4H652.45l-9.09,36q-1.26,4.9-2.46,9.89-2.17,9.08-4.16,18.45L631.65,91.2q-3.81-19.64-9.1-43.29Q617.77,26.61,611.78,2h-59L530.59,162.27h44.22l.4-3.67L586.82,51.83,617,162.24v0H648.6v0l28.8-110.18,12.12,107.07.36,3.14H736.1L712.69,2Z" transform="translate(0 -1.33)"/><path class="cls-5" d="M1125.92,5.54V158.27h-42l-55.23-86.53-7.37-11.55v98.07H982.18V6h41l56,87.2,7.36,11.48V5.54h39.46m4-4h-47.46V91L1025.32,2H978.18V162.27h46.68v0h.44V73.89l56.41,88.38h47.92v0h.29V1.54Z" transform="translate(0 -1.33)"/><path class="cls-5" d="M1200,5.33V157.7h-40V5.33h40m4-4h-48V161.7h48V1.33Z" transform="translate(0 -1.33)"/><path class="cls-5" d="M174.61,5.68V44.37H127.4V158.28H88.1V43.92H9.59L47.45,5.68H174.61m4-4H45.78L0,47.91H84.1V162.28h47.3V48.37h47.21V1.68Z" transform="translate(0 -1.33)"/><path class="cls-5" d="M949.61,7.37v152h-40V7.37h40m4-4h-48v160h48V3.37Z" transform="translate(0 -1.33)"/></g></g></svg>