<svg xmlns="http://www.w3.org/2000/svg" viewBox="0 0 705.93 85.95"><defs><style>.cls-1{fill:#fff;}.cls-2,.cls-3{fill:none;stroke:#fff;stroke-width:2px;}.cls-2{stroke-linejoin:round;}.cls-3{stroke-miterlimit:10;}</style></defs><g id="Layer_2" data-name="Layer 2"><g id="Layer_1-2" data-name="Layer 1"><path class="cls-1" d="M181.12,64.29l-4.3,4.28-7.69,7.71L162,83.4H106l4.29-4.29L118,71.4l7.13-7.11h56m4.83-2H124.31L116.6,70l-7.7,7.71-7.71,7.7h61.64l7.71-7.7,7.7-7.71,7.71-7.7Z"/><polygon class="cls-2" points="704.93 84.95 673.43 84.95 631.43 42.95 662.93 42.95 704.93 84.95"/><polygon class="cls-2" points="704.93 1 662.93 43 631.43 43 673.43 1 704.93 1"/><path class="cls-1" d="M181.21,4.4,176.9,8.71l-7.72,7.72L162,23.56H105.93l12-12,7.13-7.14h56.12m4.83-2H124.26l-7.72,7.72L101.1,25.56h61.77l7.72-7.71,7.72-7.73L186,2.4Z"/><path class="cls-1" d="M181.21,34.3l-4.31,4.31-7.72,7.72L162,53.46H105.93l12-12,7.13-7.14h56.12m4.83-2H124.26L116.54,40,101.1,55.46h61.77l7.72-7.71L178.31,40,186,32.3Z"/><path class="cls-1" d="M419.66,3.06v60h41.52l-8.71,8.71L440.94,83.31h-42.1V3.06h20.82m2-2H396.84V85.31h44.92l12.12-12.13L466,61.06H421.66v-60Z"/><path class="cls-1" d="M239.72,3.24,267,83.31H245.8L229.05,26.59l-1.92-6.51-1.92,6.51L208.54,83.31H187.86L215.1,3.24h24.62m1.43-2H213.67l-28.6,84.07h25l17.1-58.15L244.3,85.31h25.46L241.15,1.24Z"/><path class="cls-1" d="M372.12,3.24l11.69,80.07H363.67l-6.34-56-1.21-10.67L353.4,27,338.69,83.31H325.18L309.75,26.85,307,16.68l-1.14,10.48-6.09,56v.14H280.62L291.7,3.24h27.64c1.94,8,3.71,15.57,5.27,22.52,1.9,8.51,3.46,15.92,4.76,22.65l1.91,9.86,2-9.84,2.67-13c.73-3.44,1.44-6.59,2.17-9.62.42-1.73.85-3.47,1.29-5.17l4.39-17.38h28.31m1.72-2H342.25l-4.77,18.89q-.66,2.58-1.29,5.19c-.76,3.18-1.49,6.4-2.18,9.68l-2.68,13q-2-10.31-4.77-22.71-2.51-11.17-5.65-24.08H290L278.32,85.31h23.2l.21-1.93,6.09-56,15.83,57.91v0h16.57v0L355.34,27.5l6.36,56.16.19,1.65h24.24L373.84,1.24Z"/><path class="cls-1" d="M590.71,3V83.31h-22.2l-29-45.44-3.69-5.77V83.31H515.11V3.24h21.64L566.13,49l3.68,5.74V3h20.9m2-2h-24.9V48l-30-46.71H513.11V85.31H537.6v0h.23V39l29.59,46.36h25.13v0h.16V1Z"/><path class="cls-1" d="M629.57,2.89V83H608.4V2.89h21.17m2-2H606.4V85h25.17V.89Z"/><path class="cls-1" d="M91.69,3.07V23.56H66.93V83.32H46.12v-60H4.8L24.85,3.07H91.69m2-2H24L0,25.32H44.12v60H68.93V25.56H93.69V1.07Z"/><path class="cls-1" d="M498.22,4V83.89H477V4h21.18m2-2H475V85.89h25.18V2Z"/><line class="cls-3" x1="466.01" y1="61.05" x2="441.75" y2="61.05"/></g></g></svg>